<svg width="1024" height="1024" viewBox="0 0 1024 1024" fill="none" xmlns="http://www.w3.org/2000/svg">
<rect width="1024" height="1024" rx="232" fill="#F7F5F2"/>
<path d="M221.727 401.058H261.726L321.496 574.39H323.335L383.565 401.058H392.76L458.048 573.011H459.887L522.415 401.058H546.323L462.645 630.942H441.036L381.266 476.919H379.427L326.094 630.942H301.266L221.727 401.058Z" fill="white"/>
<path d="M592.344 745.821V400.994H631.424V438.236H633.263C644.604 410.037 668.512 395.937 704.987 395.937C720.313 395.937 734.412 398.849 747.286 404.673C760.159 410.19 771.194 418.312 780.389 429.04C789.891 439.462 797.247 452.029 802.458 466.741C807.669 481.454 810.274 498.006 810.274 516.396C810.274 534.481 807.669 551.032 802.458 566.051C797.247 580.764 789.891 593.331 780.389 603.752C771.194 614.174 760.159 622.296 747.286 628.12C734.412 633.637 720.313 636.396 704.987 636.396C697.631 636.396 690.274 635.63 682.918 634.097C675.868 632.564 669.125 630.112 662.688 626.741C656.252 623.369 650.428 618.925 645.217 613.407C640.313 607.89 636.328 601.147 633.263 593.178H631.424V745.821H592.344ZM631.424 492.948V532.948C631.424 545.515 633.11 556.703 636.482 566.511C640.16 576.32 644.911 584.749 650.734 591.798C656.558 598.542 663.301 603.752 670.964 607.43C678.627 610.802 686.75 612.488 695.332 612.488C704.834 612.488 713.876 610.802 722.458 607.43C731.041 603.752 738.55 598.082 744.987 590.419C751.73 582.45 756.941 572.335 760.619 560.074C764.604 547.814 766.596 532.948 766.596 515.477C766.596 498.312 764.604 483.6 760.619 471.339C756.941 459.079 751.883 449.117 745.447 441.454C739.01 433.791 731.347 428.274 722.458 424.902C713.876 421.224 704.834 419.385 695.332 419.385C686.443 419.385 678.014 421.378 670.045 425.362C662.382 429.04 655.639 434.251 649.815 440.994C643.991 447.431 639.393 455.247 636.022 464.443C632.957 473.331 631.424 482.833 631.424 492.948Z" fill="white"/>
<path d="M217.727 397.058H257.726L317.496 570.39H319.335L379.565 397.058H388.76L454.048 569.011H455.887L518.415 397.058H542.323L458.645 626.942H437.036L377.266 472.919H375.427L322.094 626.942H297.266L217.727 397.058Z" fill="#2B2D3F"/>
<path d="M588.344 741.821V396.994H627.424V434.236H629.263C640.604 406.037 664.512 391.937 700.987 391.937C716.313 391.937 730.412 394.849 743.286 400.673C756.159 406.19 767.194 414.312 776.389 425.04C785.891 435.462 793.247 448.029 798.458 462.741C803.669 477.454 806.274 494.006 806.274 512.396C806.274 530.481 803.669 547.032 798.458 562.051C793.247 576.764 785.891 589.331 776.389 599.752C767.194 610.174 756.159 618.296 743.286 624.12C730.412 629.637 716.313 632.396 700.987 632.396C693.631 632.396 686.274 631.63 678.918 630.097C671.868 628.564 665.125 626.112 658.688 622.741C652.252 619.369 646.428 614.925 641.217 609.407C636.313 603.89 632.328 597.147 629.263 589.178H627.424V741.821H588.344ZM627.424 488.948V528.948C627.424 541.515 629.11 552.703 632.482 562.511C636.16 572.32 640.911 580.749 646.734 587.798C652.558 594.542 659.301 599.752 666.964 603.43C674.627 606.802 682.75 608.488 691.332 608.488C700.834 608.488 709.876 606.802 718.458 603.43C727.041 599.752 734.55 594.082 740.987 586.419C747.73 578.45 752.941 568.335 756.619 556.074C760.604 543.814 762.596 528.948 762.596 511.477C762.596 494.312 760.604 479.6 756.619 467.339C752.941 455.079 747.883 445.117 741.447 437.454C735.01 429.791 727.347 424.274 718.458 420.902C709.876 417.224 700.834 415.385 691.332 415.385C682.443 415.385 674.014 417.378 666.045 421.362C658.382 425.04 651.639 430.251 645.815 436.994C639.991 443.431 635.393 451.247 632.022 460.443C628.957 469.331 627.424 478.833 627.424 488.948Z" fill="#2B2D3F"/>
</svg>
